<?xml version="1.0" encoding="UTF-8"?>
<svg id="Layer_1" data-name="Layer 1" xmlns="http://www.w3.org/2000/svg" viewBox="0 0 589.6 55.74">
  <defs>
    <style>
      .cls-1 {
        fill: #14b1ab;
      }

      .cls-2 {
        fill: #f22d1b;
      }

      .cls-3 {
        fill: #b7b7b7;
      }

      .cls-4 {
        fill: #fbb040;
      }

      .cls-5 {
        fill: #0388a6;
      }

      .cls-6 {
        fill: #ee2a7b;
      }

      .cls-7 {
        fill: #e8505b;
      }
    </style>
  </defs>
  <path class="cls-7" d="M32.74,14.04c0,8.96-4.91,9.39-4.91,13.35,0,5.43,6.63,13.61,6.63,22.83,0,2.07-2.58,4.39-6.46,4.39-10.25,0-8.53-23.78-12.58-23.78-4.65,0,1.21,23.69-8.01,23.69-6.81,0-7.41-7.75-7.41-13.53v-8.36c0-4.39.26-8.87.26-13.27C.26,2.84,2.76.26,19.21.26c8.1,0,13.53,4.13,13.53,13.78ZM16.45,12.15c-1.21,0-1.72.17-1.72,1.55,0,.86.09,3.53.17,4.31.09.6.17.78.43.78,1.64,0,4.74-2.58,4.74-4.57,0-1.64-2.41-2.07-3.62-2.07Z"/>
  <path class="cls-4" d="M52.38,1.21c15.59,0,22.05,25.84,22.05,42.3,0,4.82-1.29,9.39-5.94,9.39-6.2,0-6.98-6.2-8.36-11.2-.6-2.15-1.98-2.93-4.14-2.93-.95,0-1.98.09-3.19.34-1.72.43-1.81.95-2.15,2.67-1.29,5.43-2.07,12.84-8.53,12.84-4.82,0-6.37-3.7-6.37-9.56,0-8.18,3.27-19.73,5.08-27.83,1.64-7.32,4.13-16.02,11.54-16.02ZM56.43,27.57c1.21,0,1.46-.26,1.46-1.64,0-4.22-1.55-9.05-2.93-9.05-2.07,0-3.1,5.51-3.1,9.22,0,.69.26,1.03,1.38,1.21.95.17,2.07.26,3.19.26Z"/>
  <path class="cls-2" d="M112.51,53.84c-11.63,0-13.01-22.48-16.45-22.48-1.64,0-1.9,3.19-1.9,5.86,0,.78.09,1.55.09,2.15v3.01c0,6.38-.77,12.23-5.77,12.23-9.99,0-10.85-8.96-10.85-18.26,0-3.36.17-6.72.26-9.74.09-6.89-.43-24.9,9.05-24.9,8.1,0,11.37,20.68,15.33,20.68.6,0,.86-.69.86-1.81,0-2.67-.09-7.93-.09-11.37,0-4.82,1.46-9.22,6.03-9.22,6.98,0,8.53,6.72,8.53,14.13,0,9.73.09,16.89.09,26.96,0,6.2-.26,12.75-5.17,12.75Z"/>
  <path class="cls-6" d="M132.84,54.62c-8.01,0-10.94-3.19-10.94-10.68,0-8.27-.17-16.89-.17-25.16,0-7.75.26-17.23,9.3-17.23,13.96,0,27.05,9.48,27.05,26.71,0,15.77-8.1,26.36-25.24,26.36ZM135.25,19.99c-.86,0-.95.52-.95,2.15,0,2.24.17,8.27.26,10.51.09,1.98-.09,2.93,1.03,2.93,3.53,0,7.58-3.53,7.58-7.58,0-4.39-4.65-8.01-7.93-8.01Z"/>
  <path class="cls-1" d="M160.93,26.62c0-12.49,5-25.41,17.14-25.41,9.22,0,16.28,7.5,16.28,20.33,0,14.82-1.98,33.68-16.37,33.68s-17.06-16.54-17.06-28.6ZM177.55,31.36c2.24,0,3.45-3.62,3.45-7.24,0-2.76-.78-6.72-2.58-6.72-2.84,0-3.62,3.79-3.62,6.12,0,2.15.26,7.84,2.76,7.84Z"/>
  <path class="cls-5" d="M197.54,16.71c0-6.72.52-14.04,6.81-14.04,7.75,0,9.82,10.85,15.08,10.85,5.51,0,6.2-12.41,14.04-12.41s8.79,14.13,8.79,26.79c0,6.72-.34,13.01-.34,16.54,0,5.26-1.29,9.82-6.03,9.82-12.32,0-6.37-28.95-9.56-28.95-1.9,0-1.9,11.29-7.06,11.29-3.02,0-4.65-11.46-6.38-11.46-.69,0-.95,2.93-.95,6.46,0,5.17.52,11.63.52,12.32,0,6.2-.95,10.68-6.63,10.68-6.37,0-8.01-8.1-8.01-14.13,0-8.01-.26-15.77-.26-23.78Z"/>
  <path class="cls-3" d="M294.63,17.92c-1.29,0-7.06-2.33-8.18-2.33-5.6,0-8.44,8.96-8.44,13.96,0,5.26,1.55,11.46,7.24,11.46,2.5,0,4.82-.69,4.82-4.31,0-2.07-6.98.52-6.98-7.32,0-5.69,3.62-6.63,8.87-6.63,7.92,0,10.77,1.46,10.77,10.77,0,11.37-3.45,22.23-18.09,22.23s-20.85-13.27-20.85-26.45,6.89-27.74,22.14-27.74c5.17,0,15.42,2.76,15.42,9.13,0,3.88-3.27,7.24-6.72,7.24Z"/>
  <path class="cls-3" d="M332.36,8.7c0,7.15-12.92,2.15-12.92,8.44,0,4.13,11.2,2.93,11.2,9.91,0,6.12-9.99,5.08-9.99,7.67,0,7.49,14.04-.26,14.04,10.08,0,7.93-7.84,9.82-15.33,9.82-13.09,0-13.61-13.09-13.61-26.62v-1.38c0-12.66.26-24.98,13.96-24.98,5.69,0,12.66.34,12.66,7.06Z"/>
  <path class="cls-3" d="M372.25,53.84c-11.63,0-13.01-22.48-16.45-22.48-1.64,0-1.89,3.19-1.89,5.86,0,.78.09,1.55.09,2.15v3.01c0,6.38-.77,12.23-5.77,12.23-9.99,0-10.85-8.96-10.85-18.26,0-3.36.17-6.72.26-9.74.09-6.89-.43-24.9,9.05-24.9,8.1,0,11.37,20.68,15.33,20.68.6,0,.86-.69.86-1.81,0-2.67-.09-7.93-.09-11.37,0-4.82,1.46-9.22,6.03-9.22,6.98,0,8.53,6.72,8.53,14.13,0,9.73.09,16.89.09,26.96,0,6.2-.26,12.75-5.17,12.75Z"/>
  <path class="cls-3" d="M407.91,8.7c0,7.15-12.92,2.15-12.92,8.44,0,4.13,11.2,2.93,11.2,9.91,0,6.12-9.99,5.08-9.99,7.67,0,7.49,14.04-.26,14.04,10.08,0,7.93-7.84,9.82-15.33,9.82-13.09,0-13.61-13.09-13.61-26.62v-1.38c0-12.66.26-24.98,13.96-24.98,5.69,0,12.66.34,12.66,7.06Z"/>
  <path class="cls-3" d="M445.82,14.04c0,8.96-4.91,9.39-4.91,13.35,0,5.43,6.63,13.61,6.63,22.83,0,2.07-2.58,4.39-6.46,4.39-10.25,0-8.53-23.78-12.58-23.78-4.65,0,1.21,23.69-8.01,23.69-6.81,0-7.41-7.75-7.41-13.53v-8.36c0-4.39.26-8.87.26-13.27,0-16.54,2.5-19.12,18.95-19.12,8.1,0,13.53,4.13,13.53,13.78ZM429.54,12.15c-1.21,0-1.72.17-1.72,1.55,0,.86.09,3.53.17,4.31.09.6.17.78.43.78,1.64,0,4.74-2.58,4.74-4.57,0-1.64-2.41-2.07-3.62-2.07Z"/>
  <path class="cls-3" d="M465.46,1.21c15.59,0,22.05,25.84,22.05,42.3,0,4.82-1.29,9.39-5.94,9.39-6.2,0-6.98-6.2-8.36-11.2-.6-2.15-1.98-2.93-4.13-2.93-.95,0-1.98.09-3.19.34-1.72.43-1.81.95-2.15,2.67-1.29,5.43-2.07,12.84-8.53,12.84-4.82,0-6.38-3.7-6.38-9.56,0-8.18,3.27-19.73,5.08-27.83,1.64-7.32,4.13-16.02,11.54-16.02ZM469.51,27.57c1.21,0,1.46-.26,1.46-1.64,0-4.22-1.55-9.05-2.93-9.05-2.07,0-3.1,5.51-3.1,9.22,0,.69.26,1.03,1.38,1.21.95.17,2.07.26,3.19.26Z"/>
  <path class="cls-3" d="M495.96,24.38c0-3.7,0-7.49-4.82-7.49-3.62,0-5.51-3.1-5.51-6.38,0-8.61,10.42-9.22,17.83-9.22s14.64.6,14.64,8.01c0,8.61-8.44,3.53-8.44,9.48,0,8.44.52,16.89.52,24.72,0,5.17-.86,11.11-7.67,11.11-5.77,0-6.72-9.22-6.72-13.78,0-5.69.17-10.68.17-16.45Z"/>
  <path class="cls-3" d="M518.53,26.62c0-12.49,5-25.41,17.14-25.41,9.22,0,16.28,7.5,16.28,20.33,0,14.82-1.98,33.68-16.37,33.68s-17.06-16.54-17.06-28.6ZM535.16,31.36c2.24,0,3.45-3.62,3.45-7.24,0-2.76-.77-6.72-2.58-6.72-2.84,0-3.62,3.79-3.62,6.12,0,2.15.26,7.84,2.76,7.84Z"/>
  <path class="cls-3" d="M587.88,14.04c0,8.96-4.91,9.39-4.91,13.35,0,5.43,6.63,13.61,6.63,22.83,0,2.07-2.58,4.39-6.46,4.39-10.25,0-8.53-23.78-12.58-23.78-4.65,0,1.21,23.69-8.01,23.69-6.81,0-7.41-7.75-7.41-13.53v-8.36c0-4.39.26-8.87.26-13.27,0-16.54,2.5-19.12,18.95-19.12,8.1,0,13.53,4.13,13.53,13.78ZM571.6,12.15c-1.21,0-1.72.17-1.72,1.55,0,.86.09,3.53.17,4.31.09.6.17.78.43.78,1.64,0,4.74-2.58,4.74-4.57,0-1.64-2.41-2.07-3.62-2.07Z"/>
</svg>